<svg width="64" height="64" viewBox="0 0 64 64" fill="none" xmlns="http://www.w3.org/2000/svg">
<path id="Exclude" fill-rule="evenodd" clip-rule="evenodd" d="M32 64C49.6731 64 64 49.6731 64 32C64 14.3269 49.6731 0 32 0C14.3269 0 0 14.3269 0 32C0 49.6731 14.3269 64 32 64ZM27.8931 38.623V38.623C27.8931 39.8204 28.8637 40.791 30.0611 40.791H33.899C34.8698 40.791 35.6568 40.004 35.6568 39.0332V39.0332C35.6568 37.8613 35.9009 36.9141 36.3892 36.1914C36.897 35.4688 38.0884 34.4141 39.9634 33.0273C42.6978 31.0742 44.5533 29.3164 45.5298 27.7539C46.5064 26.1914 46.9947 24.3359 46.9947 22.1875C46.9947 18.9648 45.8033 16.3867 43.4204 14.4531C41.0572 12.5195 37.8638 11.5527 33.8404 11.5527C29.9007 11.5527 26.1327 12.3474 22.5363 13.9368C21.0731 14.5834 20.5429 16.3398 21.2556 17.7719L21.826 18.9178C22.5695 20.4117 24.3829 20.9928 25.93 20.3674C28.5816 19.2957 31.0036 18.7598 33.1958 18.7598C34.8755 18.7598 36.1841 19.0918 37.1216 19.7559C38.0591 20.4199 38.5279 21.3867 38.5279 22.6562C38.5279 23.7891 38.1958 24.8145 37.5318 25.7324C36.8872 26.6504 35.5396 27.8418 33.4888 29.3066C31.3599 30.8691 29.8951 32.3438 29.0943 33.7305C28.2935 35.1172 27.8931 36.748 27.8931 38.623ZM28.274 47.0898C27.3951 47.9297 26.9556 49.1699 26.9556 50.8105C26.9556 52.3926 27.4048 53.623 28.3033 54.502C29.2017 55.3613 30.4712 55.791 32.1119 55.791C33.7134 55.791 34.9634 55.3516 35.8619 54.4727C36.7603 53.5742 37.2095 52.3535 37.2095 50.8105C37.2095 49.209 36.7603 47.9785 35.8619 47.1191C34.9829 46.2598 33.7329 45.8301 32.1119 45.8301C30.4322 45.8301 29.1529 46.25 28.274 47.0898Z" fill="#B5EE9B"/>
</svg>
