<svg width="56" height="28" viewBox="0 0 56 28" fill="none" xmlns="http://www.w3.org/2000/svg">
<path id="Exclude" fill-rule="evenodd" clip-rule="evenodd" d="M14.2105 28C6.36227 28 0 21.732 0 14C0 6.26801 6.36227 0 14.2105 0C16.2316 0 18.1541 0.415653 19.8947 1.16492L53.3438 11.1248C56.2023 11.9759 56.2023 16.0241 53.3438 16.8752L19.8947 26.8351C18.1541 27.5843 16.2316 28 14.2105 28ZM14 24C19.5228 24 24 19.5228 24 14C24 8.47715 19.5228 4 14 4C8.47715 4 4 8.47715 4 14C4 19.5228 8.47715 24 14 24Z" fill="#eedc9b"/>
</svg>
