<svg width="64" height="64" viewBox="0 0 64 64" fill="none" xmlns="http://www.w3.org/2000/svg">
<path id="Exclude" fill-rule="evenodd" clip-rule="evenodd" d="M32 64C49.6731 64 64 49.6731 64 32C64 14.3269 49.6731 0 32 0C14.3269 0 0 14.3269 0 32C0 49.6731 14.3269 64 32 64ZM15.1213 46.9411C13.9497 45.7696 13.9497 43.8701 15.1213 42.6985L23.9602 33.8597C25.1317 32.6881 25.1317 30.7886 23.9602 29.617L15.1213 20.7782C13.9497 19.6066 13.9497 17.7071 15.1213 16.5355L16.5355 15.1213C17.7071 13.9498 19.6066 13.9498 20.7782 15.1213L29.617 23.9602C30.7886 25.1317 32.6881 25.1317 33.8596 23.9602L42.6985 15.1213C43.8701 13.9497 45.7696 13.9497 46.9411 15.1213L48.3553 16.5355C49.5269 17.7071 49.5269 19.6066 48.3553 20.7782L39.5165 29.617C38.3449 30.7886 38.3449 32.6881 39.5165 33.8597L48.3553 42.6985C49.5269 43.8701 49.5269 45.7696 48.3553 46.9411L46.9411 48.3554C45.7695 49.5269 43.8701 49.5269 42.6985 48.3554L33.8596 39.5165C32.6881 38.3449 30.7886 38.3449 29.617 39.5165L20.7782 48.3553C19.6066 49.5269 17.7071 49.5269 16.5355 48.3553L15.1213 46.9411Z" fill="#EE9B9B"/>
</svg>
